<?xml version="1.0" encoding="UTF-8"?>
<!DOCTYPE svg PUBLIC "-//W3C//DTD SVG 1.1//EN" "http://www.w3.org/Graphics/SVG/1.1/DTD/svg11.dtd">
<svg version="1.1" xmlns="http://www.w3.org/2000/svg" xmlns:xlink="http://www.w3.org/1999/xlink" width="1024" height="1024"  xml:space="preserve" id="canvas1">
    <!-- Generated by PaintCode - http://www.paintcodeapp.com -->
    <defs>
        <radialGradient id="canvas1-gradient9-bottomShadow" cx="587.76" cy="1085.44"  r="512.59" fx="587.76" fy="1085.44" gradientUnits="userSpaceOnUse" >
            <stop offset="0.022" stop-color="rgb(0, 0, 0)" stop-opacity="1" />
            <stop offset="0.381" stop-color="rgb(0, 0, 0)" stop-opacity="0.5" />
            <stop offset="1" stop-color="rgb(0, 0, 0)" stop-opacity="0" />
        </radialGradient>
        <linearGradient id="canvas1-canvasGradient-rectangle" x1="512" y1="167" x2="512" y2="764" gradientUnits="userSpaceOnUse" >
            <stop offset="0" stop-color="rgb(109, 186, 253)" stop-opacity="1" />
            <stop offset="1" stop-color="rgb(43, 125, 210)" stop-opacity="1" />
        </linearGradient>
        <linearGradient id="canvas1-canvasGradient-blueCanvasClip" x1="512" y1="167" x2="512" y2="764" gradientUnits="userSpaceOnUse" >
            <stop offset="0" stop-color="rgb(109, 186, 253)" stop-opacity="1" />
            <stop offset="1" stop-color="rgb(43, 125, 210)" stop-opacity="1" />
        </linearGradient>
        <linearGradient id="canvas1-woodGradientHorizontalBars-bottomHorizontalBarTopSide" x1="514" y1="782" x2="514" y2="717" gradientUnits="userSpaceOnUse" >
            <stop offset="0" stop-color="rgb(247, 204, 151)" stop-opacity="1" />
            <stop offset="1" stop-color="rgb(201, 164, 120)" stop-opacity="1" />
        </linearGradient>
        <filter id="canvas1-horizontalBarShadow-outer" filterUnits="userSpaceOnUse">
            <feGaussianBlur stdDeviation="20" />
            <feOffset dx="0" dy="-16" result="blur" />
            <feFlood flood-color="rgb(0, 0, 0)" flood-opacity="0.13" />
            <feComposite in2="blur" operator="in" result="colorShadow" />
            <feComposite in="SourceGraphic" in2="colorShadow" operator="over" />
        </filter>
        <linearGradient id="canvas1-woodGradientHorizontalBars-bottomHorizontalBar" x1="514" y1="726" x2="514" y2="782" gradientUnits="userSpaceOnUse" >
            <stop offset="0" stop-color="rgb(247, 204, 151)" stop-opacity="1" />
            <stop offset="1" stop-color="rgb(201, 164, 120)" stop-opacity="1" />
        </linearGradient>
        <linearGradient id="canvas1-woodGradientShades-topHorizontalBarShaded" x1="512" y1="130" x2="512" y2="194" gradientUnits="userSpaceOnUse" >
            <stop offset="0" stop-color="rgb(122, 102, 64)" stop-opacity="1" />
            <stop offset="1" stop-color="rgb(146, 119, 86)" stop-opacity="1" />
        </linearGradient>
        <filter id="canvas1-horizontalBarShadow2-outer" filterUnits="userSpaceOnUse">
            <feGaussianBlur stdDeviation="28" />
            <feOffset dx="0" dy="8" result="blur" />
            <feFlood flood-color="rgb(0, 0, 0)" flood-opacity="0.58" />
            <feComposite in2="blur" operator="in" result="colorShadow" />
            <feComposite in="SourceGraphic" in2="colorShadow" operator="over" />
        </filter>
        <linearGradient id="canvas1-woodGradientShades-clip" x1="514.5" y1="167" x2="514.5" y2="298" gradientUnits="userSpaceOnUse" >
            <stop offset="0" stop-color="rgb(122, 102, 64)" stop-opacity="1" />
            <stop offset="1" stop-color="rgb(146, 119, 86)" stop-opacity="1" />
        </linearGradient>
        <linearGradient id="canvas1-lightWoodGradient2-topHorizontalBar" x1="512" y1="129" x2="512" y2="185" gradientUnits="userSpaceOnUse" >
            <stop offset="0" stop-color="rgb(240, 213, 179)" stop-opacity="1" />
            <stop offset="0.49" stop-color="rgb(242, 208, 163)" stop-opacity="1" />
            <stop offset="0.98" stop-color="rgb(215, 184, 142)" stop-opacity="1" />
            <stop offset="1" stop-color="rgb(189, 161, 121)" stop-opacity="1" />
        </linearGradient>
        <linearGradient id="canvas1-lightWoodGradient1-topVerticalBar" x1="512" y1="-0" x2="512" y2="129" gradientUnits="userSpaceOnUse" >
            <stop offset="0" stop-color="rgb(240, 205, 161)" stop-opacity="1" />
            <stop offset="1" stop-color="rgb(189, 160, 125)" stop-opacity="1" />
        </linearGradient>
        <linearGradient id="canvas1-woodGradientShades-hindLeg" x1="513.5" y1="855" x2="513.5" y2="782" gradientUnits="userSpaceOnUse" >
            <stop offset="0" stop-color="rgb(122, 102, 64)" stop-opacity="1" />
            <stop offset="1" stop-color="rgb(146, 119, 86)" stop-opacity="1" />
        </linearGradient>
        <linearGradient id="canvas1-gradient13-bezier2" x1="672.27" y1="781.97" x2="672.27" y2="1024" gradientUnits="userSpaceOnUse" >
            <stop offset="0" stop-color="rgb(125, 105, 80)" stop-opacity="1" />
            <stop offset="0.07" stop-color="rgb(170, 142, 107)" stop-opacity="1" />
            <stop offset="0.37" stop-color="rgb(214, 180, 135)" stop-opacity="1" />
            <stop offset="0.98" stop-color="rgb(203, 168, 123)" stop-opacity="1" />
            <stop offset="1" stop-color="rgb(191, 156, 112)" stop-opacity="1" />
        </linearGradient>
        <linearGradient id="canvas1-woodGradientShades-bezier4" x1="624.43" y1="781.97" x2="624.43" y2="1024" gradientUnits="userSpaceOnUse" >
            <stop offset="0" stop-color="rgb(122, 102, 64)" stop-opacity="1" />
            <stop offset="1" stop-color="rgb(146, 119, 86)" stop-opacity="1" />
        </linearGradient>
        <linearGradient id="canvas1-gradient13-bezier" x1="356.76" y1="781.97" x2="356.76" y2="1024" gradientUnits="userSpaceOnUse" >
            <stop offset="0" stop-color="rgb(125, 105, 80)" stop-opacity="1" />
            <stop offset="0.07" stop-color="rgb(170, 142, 107)" stop-opacity="1" />
            <stop offset="0.37" stop-color="rgb(214, 180, 135)" stop-opacity="1" />
            <stop offset="0.98" stop-color="rgb(203, 168, 123)" stop-opacity="1" />
            <stop offset="1" stop-color="rgb(191, 156, 112)" stop-opacity="1" />
        </linearGradient>
        <linearGradient id="canvas1-woodGradientShades-bezier3" x1="403.97" y1="781.97" x2="403.97" y2="1024" gradientUnits="userSpaceOnUse" >
            <stop offset="0" stop-color="rgb(122, 102, 64)" stop-opacity="1" />
            <stop offset="1" stop-color="rgb(146, 119, 86)" stop-opacity="1" />
        </linearGradient>
    </defs>
    <g id="canvas1-group2" clip-path="url(#canvas1-rectangle2)">
        <clipPath id="canvas1-rectangle2">
            <rect x="0" y="0" width="1024" height="1024" />
        </clipPath>
        <g id="canvas1-group">
            <ellipse id="canvas1-bottomShadow" opacity="0.4" stroke="none" fill="url(#canvas1-gradient9-bottomShadow)" cx="587.76" cy="1085.44" rx="587.76" ry="1085.44"  transform="translate(-73.88, 464.12) scale(1, 0.3)" />
            <g id="canvas1-blueCanvasGroup" clip-path="url(#canvas1-blueCanvasClip)">
                <clipPath id="canvas1-blueCanvasClip">
                    <rect x="84" y="167" width="856" height="597" rx="24" />
                </clipPath>
                <rect id="canvas1-rectangle" stroke="none" fill="url(#canvas1-canvasGradient-rectangle)" x="84" y="167" width="856" height="597" rx="24" />
                <g id="canvas1-group3" clip-path="url(#canvas1-rectangle3)" opacity="0.5" transform="translate(503.35, 539.36) rotate(27.74) scale(1.07, 1.07)" >
                    <clipPath id="canvas1-rectangle3">
                        <rect x="-516" y="-524" width="1024" height="1024" />
                    </clipPath>
                    <path id="canvas1-bezier11" opacity="0.15" stroke="none" fill="rgb(255, 255, 255)" d="M -6,-93.11 C -6,-79.24 -6,-54.52 -6,-43.98 -28.08,-43.64 -49.07,-38.81 -68.11,-30.37 -107.99,-12.68 -139.26,20.88 -153.91,62.3 -159.32,77.6 -162.47,93.97 -162.94,111 L -216.95,111 C -214.58,-4 -121.26,-96.66 -6,-97.99 -6,-96.59 -6,-94.95 -6,-93.11 Z M -6,-93.11" />
                    <path id="canvas1-bezier14" opacity="0.12" stroke="none" fill="rgb(255, 255, 255)" d="M -6,-101.02 C -6,-100.65 -6,-100.26 -6,-99.84 -6,-87.54 -6,-60 -6,-47.02 -68.37,-47.88 -122.96,-80.91 -153.94,-130.26 -170.67,-156.91 -180.52,-188.32 -180.98,-222 L -126.98,-222 C -125.66,-155.78 -72.22,-102.34 -6,-101.02 Z M -6,-101.02" />
                    <g id="canvas1-group4" opacity="0.4">
                        <path id="canvas1-bezier10" stroke="none" fill="rgb(255, 255, 255)" d="M 174,-224.5 C 174,-147.82 125.38,-82.5 57.28,-57.68 39.06,-51.04 19.45,-47.3 -1,-47.02 -1,-62.94 -1,-93.06 -1,-101.03 66.05,-102.36 120,-157.13 120,-224.5 120,-292.71 64.71,-348 -3.5,-348 -70.87,-348 -125.64,-294.05 -126.98,-227 L -180.98,-227 C -179.65,-323.88 -100.7,-402 -3.5,-402 94.53,-402 174,-322.53 174,-224.5 Z M 174,-224.5" />
                        <path id="canvas1-bezier13" stroke="none" fill="rgb(255, 255, 255)" d="M 210,115.5 C 210,233.41 114.41,329 -3.5,329 -73.24,329 -135.18,295.56 -174.14,243.83 -175.93,241.46 -177.67,239.05 -179.36,236.59 -203.01,202.31 -216.9,160.78 -217,116 L -163,116 C -162.93,138.96 -158.01,160.77 -149.21,180.47 -148.14,182.87 -147.01,185.24 -145.83,187.57 -119.51,239.45 -65.65,275 -3.5,275 84.59,275 156,203.59 156,115.5 156,28.25 85.94,-42.64 -1,-43.98 -1,-56.11 -1,-81.15 -1,-95.42 -1,-96.32 -1,-97.18 -1,-97.99 115.76,-96.65 210,-1.58 210,115.5 Z M 210,115.5" />
                    </g>
                    <path id="canvas1-bezier5" stroke="rgb(208, 227, 245)" stroke-opacity="0.7" stroke-width="5" stroke-linecap="square" stroke-miterlimit="10" fill="none" d="M -514.5,113.5 L -246,113.5" />
                    <path id="canvas1-bezier6" stroke="rgb(208, 227, 245)" stroke-opacity="0.7" stroke-width="5" stroke-miterlimit="10" fill="none" d="M -514.5,-224.5 L -207,-224.5" />
                    <path id="canvas1-bezier7" stroke="rgb(208, 227, 245)" stroke-opacity="0.7" stroke-width="5" stroke-miterlimit="10" fill="none" d="M -3.5,496.5 L -3.5,353.5" />
                    <path id="canvas1-bezier8" opacity="0.7" stroke="rgb(255, 255, 255)" stroke-width="10" stroke-miterlimit="10" fill="none" d="M 197,-224.5 C 197,-167.47 173.19,-116 134.96,-79.49 194.94,-36.38 234,34 234,113.5 234,244.67 127.67,351 -3.5,351 -118.57,351 -214.52,269.17 -236.35,160.52 -239.4,145.32 -241,129.6 -241,113.5 L -140,113.5 C -140,189.44 -79.44,251 -3.5,251 72.44,251 133,189.44 133,113.5 133,37.56 72.44,-23 -3.5,-23 L -3.5,-124 C 52,-124 97,-169 97,-224.5 97,-280 52,-325 -3.5,-325 -59,-325 -103.5,-280 -103.5,-224.5 L -204.5,-224.5 C -204.5,-335.23 -114.23,-425 -3.5,-425 107.23,-425 197,-335.23 197,-224.5 Z M 197,-224.5" />
                    <path id="canvas1-bezier9" stroke="rgb(208, 227, 245)" stroke-opacity="0.7" stroke-width="5" stroke-linecap="square" stroke-miterlimit="10" fill="none" d="M -135,113.5 L -8.5,113.5" />
                    <path id="canvas1-bezier12" stroke="rgb(208, 227, 245)" stroke-opacity="0.7" stroke-width="5" stroke-linecap="square" stroke-miterlimit="10" fill="none" d="M 1.5,113.5 L 509,113.5" />
                    <path id="canvas1-bezier15" stroke="rgb(208, 227, 245)" stroke-opacity="0.7" stroke-width="5" stroke-miterlimit="10" fill="none" d="M -514.5,-224.5 L -207,-224.5" />
                    <path id="canvas1-bezier16" stroke="rgb(208, 227, 245)" stroke-opacity="0.7" stroke-width="5" stroke-miterlimit="10" fill="none" d="M -101.5,-224.5 L -6,-224.5" />
                    <path id="canvas1-bezier17" stroke="rgb(208, 227, 245)" stroke-opacity="0.7" stroke-width="5" stroke-miterlimit="10" fill="none" d="M -1,-224.5 L 508.5,-224.5" />
                    <path id="canvas1-bezier18" stroke="rgb(208, 227, 245)" stroke-opacity="0.7" stroke-width="5" stroke-miterlimit="10" fill="none" d="M -3.5,348.5 L -3.5,253.5" />
                    <path id="canvas1-bezier19" stroke="rgb(208, 227, 245)" stroke-opacity="0.7" stroke-width="5" stroke-miterlimit="10" fill="none" d="M -3.5,248.5 L -3.5,-20.5" />
                    <path id="canvas1-bezier20" stroke="rgb(208, 227, 245)" stroke-opacity="0.7" stroke-width="5" stroke-miterlimit="10" fill="none" d="M -3.5,-126.5 L -3.5,-322.5" />
                    <path id="canvas1-bezier21" stroke="rgb(208, 227, 245)" stroke-opacity="0.7" stroke-width="5" stroke-miterlimit="10" fill="none" d="M -3.5,-327.5 L -3.5,-422.5" />
                    <path id="canvas1-bezier22" stroke="rgb(208, 227, 245)" stroke-opacity="0.7" stroke-width="5" stroke-miterlimit="10" fill="none" d="M -3.5,-427.5 L -3.5,-525.5" />
                </g>
                <g id="canvas1-group5" opacity="0.3" transform="translate(758, 671)" >
                    <path id="canvas1-bezier23" stroke="rgb(255, 255, 255)" stroke-width="1" stroke-linecap="round" stroke-miterlimit="10" fill="none" d="M 75.5,41.5 C 67.5,54.5 53.11,71.56 47.11,78.56 46.19,79.68 45.47,81.99 45.47,81.99" />
                    <path id="canvas1-bezier24" stroke="rgb(255, 255, 255)" stroke-width="1" stroke-linecap="round" stroke-miterlimit="10" fill="none" d="M 87.5,37.5 C 80.5,43.5 72.5,51.5 68.5,56.5 64.5,61.5 62.9,62.8 61.04,64.96 59.17,67.13 56.62,69.95 57.2,70.41 57.79,70.87 59.5,70.5 61.5,68.5 63.5,66.5 64.58,67.39 63.57,71.81 62.55,76.22 69.5,72.5 71.5,74.5" />
                    <path id="canvas1-bezier25" stroke="rgb(255, 255, 255)" stroke-width="1" stroke-linecap="round" stroke-miterlimit="10" fill="none" d="M 74.5,60.5 C 73.5,62.5 75.5,61.5 75.5,61.5" />
                    <path id="canvas1-bezier26" stroke="rgb(255, 255, 255)" stroke-width="1" stroke-linecap="round" stroke-miterlimit="10" fill="none" d="M 93.5,54.5 C 90.5,64.5 84.5,73.5 82.5,73.5 80.5,73.5 83.5,73.5 84.5,74.5 85.5,75.5 86.7,77.39 88.5,76.5 90.3,75.61 96.11,68.78 96.11,59.96 96.19,56.3 95.35,52.65 94.43,51.69 93.5,50.74 87.74,52.42 85.59,64.46" />
                    <path id="canvas1-bezier27" stroke="rgb(255, 255, 255)" stroke-width="1" stroke-linecap="round" stroke-miterlimit="10" fill="none" d="M 96.5,71.5 C 97.5,73.5 97.81,74.08 98.66,72.79 99.5,71.5 100.68,74.06 101.88,74.06 103.07,74.06 102.16,72.79 104.16,72.79 106.16,72.79 105.94,73.52 106.54,73.39 107.13,73.26 107.79,72.79 107.79,72.79" />
                    <path id="canvas1-bezier28" stroke="rgb(255, 255, 255)" stroke-width="1" stroke-linecap="round" stroke-miterlimit="10" fill="none" d="M 116.5,57.5 C 116.5,57.5 114.45,61.36 113.59,63.43 112.74,65.51 111.8,68.54 111.8,68.54" />
                    <path id="canvas1-bezier29" stroke="rgb(255, 255, 255)" stroke-width="1" stroke-linecap="round" stroke-linejoin="round" stroke-miterlimit="10" fill="none" d="M 118.69,61.12 C 118.69,61.12 116.92,63.98 115.42,66.97 113.92,69.96 112.61,73.5 112.61,73.5 112.61,73.5 120.26,76.16 126.26,76.16 132.26,76.16 137.5,73.5 137.5,73.5" />
                    <path id="canvas1-bezier30" stroke="rgb(255, 255, 255)" stroke-width="1" stroke-linecap="round" stroke-linejoin="round" stroke-miterlimit="10" fill="none" d="M 113.3,73.71 L 115.72,73.5" />
                    <path id="canvas1-bezier31" stroke="rgb(255, 255, 255)" stroke-width="1" stroke-linecap="round" stroke-linejoin="round" stroke-miterlimit="10" fill="none" d="M 116.26,27.38 C 116.26,27.38 112.37,35.79 110.65,41.09 108.94,46.39 107.06,52.65 107.06,52.65" />
                    <path id="canvas1-bezier32" stroke="rgb(255, 255, 255)" stroke-width="1" stroke-linecap="round" stroke-linejoin="round" stroke-miterlimit="10" fill="none" d="M 121.5,28.5 C 121.5,28.5 114.41,35.9 111.5,39.5 108.59,43.1 104.39,48.21 104.39,48.21 104.39,48.21 119.02,42.5 126.5,42.5 133.98,42.5 141.77,45.74 144.5,50.5 147.23,55.26 147.03,60.97 143.19,64.6 142,65 143,63 143,63" />
                    <path id="canvas1-bezier33" stroke="rgb(255, 255, 255)" stroke-width="1" stroke-linecap="round" stroke-linejoin="round" stroke-miterlimit="10" fill="none" d="M 150.5,33.5 C 150.5,33.5 145.98,39.72 145.98,41.17 145.98,42.62 147.05,42.7 147.68,42.57 148.32,42.44 149.62,41.63 149.62,41.63 L 148.7,43.84" />
                    <path id="canvas1-bezier34" stroke="rgb(255, 255, 255)" stroke-width="1" stroke-linecap="round" stroke-linejoin="round" stroke-miterlimit="10" fill="none" d="M 130.5,31.5 C 123.17,27.99 125.2,26.09 130.5,23.7 135.8,21.32 148.25,20.97 154.25,21.95 160.26,22.93 174.97,28.66 160.23,31.5 L 153.03,32.85" />
                    <path id="canvas1-bezier35" stroke="rgb(255, 255, 255)" stroke-width="1" stroke-linecap="round" stroke-linejoin="round" stroke-miterlimit="10" fill="none" d="M 160.5,27.5 L 153.43,42.43" />
                    <path id="canvas1-bezier36" stroke="rgb(255, 255, 255)" stroke-width="1" stroke-linecap="round" stroke-linejoin="round" stroke-miterlimit="10" fill="none" d="M 157.5,38.5 C 161.5,36.5 161.77,37.39 161.77,37.39 161.77,37.39 160.28,44.88 160.76,45.38 161.25,45.88 164.08,36.5 164.08,36.5 164.08,36.5 164.93,34.84 165.48,33.68 166.02,32.53 167.24,36.5 167.24,36.5 167.24,36.5 167.52,40.71 168.22,41.21 168.92,41.71 168.48,39.17 170.05,38.5" />
                    <path id="canvas1-bezier37" stroke="rgb(255, 255, 255)" stroke-width="1" stroke-linecap="round" stroke-linejoin="round" stroke-miterlimit="10" fill="none" d="M 10.5,78.5 C 10.5,78.5 21.91,63.49 23.06,52.74 23.06,52.74 21.63,59.92 20.68,64.3 19.43,70 18.98,72.72 23.5,66.5 26,63.5 26.5,62.5 26.5,62.5 26.5,62.5 25.99,65.68 27.64,62.5 29.3,59.32 27.5,65.5 30.5,62.5 33.5,59.5 39.5,46.5 39.5,46.5 39.5,46.5 35.5,57.5 35.5,59.5" />
                    <path id="canvas1-bezier38" stroke="rgb(255, 255, 255)" stroke-width="1" stroke-linecap="round" stroke-linejoin="round" stroke-miterlimit="10" fill="none" d="M 37.5,53.5 C 46.5,43.5 45.5,38.5 31.5,49.5 17.5,60.5 12.5,67.5 10.5,70.5 8.5,73.5 10.5,71.5 20.5,64.5 30.5,57.5 60.5,41.5 64.5,41.5" />
                    <path id="canvas1-bezier39" stroke="rgb(255, 255, 255)" stroke-width="1" stroke-linecap="round" stroke-linejoin="round" stroke-miterlimit="10" fill="none" d="M 42.5,54.5 C 40.5,53.5 37.25,56.39 39.87,56.39 42.5,56.39 42.5,53.5 45.5,52.5 48.5,51.5 49.5,50.5 49.5,50.5" />
                    <path id="canvas1-bezier40" stroke="rgb(255, 255, 255)" stroke-width="1" stroke-linecap="round" stroke-miterlimit="10" fill="none" d="M 56.5,47.5 C 53.5,47.5 48.5,53.5 57.5,49.5" />
                    <path id="canvas1-bezier41" stroke="rgb(255, 255, 255)" stroke-width="1" stroke-linecap="round" stroke-linejoin="round" stroke-miterlimit="10" fill="none" d="M 57.5,46.5 C 52.5,48.5 45.25,46.12 58.9,35.35 72.54,24.58 84.6,18.16 87.25,16.94" />
                </g>
            </g>
            <rect id="canvas1-bottomHorizontalBarTopSide" stroke="none" fill="url(#canvas1-woodGradientHorizontalBars-bottomHorizontalBarTopSide)" filter="url(#canvas1-horizontalBarShadow-outer)" x="271" y="717" width="486" height="65" rx="16" />
            <rect id="canvas1-bottomHorizontalBar" stroke="none" fill="url(#canvas1-woodGradientHorizontalBars-bottomHorizontalBar)" filter="url(#canvas1-horizontalBarShadow-outer)" x="271" y="726" width="486" height="56" rx="16" />
            <g id="canvas1-topHorizontalBarBottomSide" clip-path="url(#canvas1-clip)">
                <clipPath id="canvas1-clip">
                    <rect x="315" y="167" width="399" height="131" />
                </clipPath>
                <rect id="canvas1-topHorizontalBarShaded" stroke="none" fill="url(#canvas1-woodGradientShades-topHorizontalBarShaded)" filter="url(#canvas1-horizontalBarShadow2-outer)" x="388" y="130" width="248" height="64" rx="16" />
            </g>
            <rect id="canvas1-topHorizontalBar" stroke="none" fill="url(#canvas1-lightWoodGradient2-topHorizontalBar)" x="388" y="129" width="248" height="56" rx="16" />
            <path id="canvas1-topVerticalBar" stroke="none" fill="url(#canvas1-lightWoodGradient1-topVerticalBar)" d="M 471,129 L 553,129 553,25 C 553,11.19 541.81,0 528,-0 L 496,-0 C 482.19,-0 471,11.19 471,25 Z M 471,129" />
            <path id="canvas1-hindLeg" stroke="none" fill="url(#canvas1-woodGradientShades-hindLeg)" d="M 481,839 C 481,847.84 488.16,855 497,855 L 530,855 C 538.84,855 546,847.84 546,839 L 546,782 481,782 Z M 481,839" />
            <g id="canvas1-rightLeg">
                <path id="canvas1-bezier2" stroke="none" fill="url(#canvas1-gradient13-bezier2)" d="M 741.84,1001.05 L 745.19,1016.96 C 746.02,1021.36 744.97,1024 739.56,1024 L 654.42,1024 648.95,1019.68 600.89,790.46 599.11,781.97 695.91,781.97 741.84,1001.05 Z M 741.84,1001.05" />
                <path id="canvas1-bezier4" stroke="none" fill="url(#canvas1-woodGradientShades-bezier4)" d="M 654.36,1024 L 654.36,1024 652.18,1023.31 648.37,1022.11 C 645.31,1021.17 643.91,1017.85 643.42,1015.23 642.18,1008.62 594.5,781.97 594.5,781.97 L 603.72,781.97 654.36,1024 Z M 654.36,1024" />
            </g>
            <g id="canvas1-leftLeg">
                <path id="canvas1-bezier" stroke="none" fill="url(#canvas1-gradient13-bezier)" d="M 288.11,1000.95 L 284.81,1016.93 C 283.99,1021.35 285.03,1024 290.36,1024 L 374.37,1024 379.78,1019.66 428.95,781.97 333.43,781.97 288.11,1000.95 Z M 288.11,1000.95" />
                <path id="canvas1-bezier3" stroke="none" fill="url(#canvas1-woodGradientShades-bezier3)" d="M 374.43,1024 L 374.43,1024 376.58,1023.31 380.34,1022.1 C 383.36,1021.16 384.75,1017.82 385.23,1015.19 386.45,1008.55 433.5,781.97 433.5,781.97 L 424.41,781.97 374.43,1024 Z M 374.43,1024" />
            </g>
        </g>
    </g>
</svg>
